<svg width="24" height="24" viewBox="0 0 24 24" fill="none" xmlns="http://www.w3.org/2000/svg">
<g clip-path="url(#clip0_1_5789)">
<path fill-rule="evenodd" clip-rule="evenodd" d="M6.60741 3.25032C5.7645 4.09322 5.76455 5.44979 5.7645 8.16305L5.7645 15.8371C5.7645 18.5504 5.7645 19.907 6.60744 20.7499C7.45032 21.5928 8.8069 21.5928 11.5201 21.5928L12.4794 21.5928C15.1926 21.5928 16.5492 21.5928 17.3921 20.7499C18.235 19.907 18.235 18.5504 18.235 15.8372L18.235 8.16306C18.235 5.4498 18.235 4.09324 17.3921 3.25032C16.5492 2.40743 15.1926 2.40743 12.4794 2.40743L11.5201 2.40743C8.80691 2.40743 7.45029 2.40743 6.60741 3.25032ZM14.3976 6.03565C14.8118 6.03565 15.1476 5.69986 15.1476 5.28565C15.1476 4.87143 14.8118 4.53565 14.3976 4.53565L9.60124 4.53564C9.18703 4.53565 8.85124 4.87143 8.85124 5.28564C8.85124 5.69986 9.18703 6.03565 9.60124 6.03564L14.3976 6.03565ZM11.9992 18.7155C12.7939 18.7154 13.4381 18.0712 13.4382 17.2765C13.4382 16.4819 12.7939 15.8376 11.9993 15.8376C11.2046 15.8377 10.5604 16.4819 10.5603 17.2766C10.5603 18.0712 11.2046 18.7155 11.9992 18.7155Z" fill="#4E4E4E"/>
</g>
<defs>
<clipPath id="clip0_1_5789">
<rect width="24" height="24" fill="white"/>
</clipPath>
</defs>
</svg>
