<svg width="56" height="56" viewBox="0 0 56 56" fill="none" xmlns="http://www.w3.org/2000/svg">
<rect width="56" height="56" rx="11" fill="#F6F6F6"/>
<path d="M26.7901 31.17C26.5901 31.17 26.4001 31.09 26.2601 30.95L23.8401 28.53C23.5501 28.24 23.5501 27.76 23.8401 27.47C24.1301 27.18 24.6101 27.18 24.9001 27.47L26.7901 29.36L31.0901 25.06C31.3801 24.77 31.8601 24.77 32.1501 25.06C32.4401 25.35 32.4401 25.83 32.1501 26.12L27.3201 30.95C27.1801 31.09 26.9901 31.17 26.7901 31.17Z" fill="#797979"/>
<path d="M27.9999 38.75C27.3699 38.75 26.7399 38.54 26.2499 38.12L24.6699 36.76C24.5099 36.62 24.1099 36.48 23.8999 36.48H22.1799C20.6999 36.48 19.4999 35.28 19.4999 33.8V32.09C19.4999 31.88 19.3599 31.49 19.2199 31.33L17.8699 29.74C17.0499 28.77 17.0499 27.24 17.8699 26.27L19.2199 24.68C19.3599 24.52 19.4999 24.13 19.4999 23.92V22.2C19.4999 20.72 20.6999 19.52 22.1799 19.52H23.9099C24.1199 19.52 24.5199 19.37 24.6799 19.24L26.2599 17.88C27.2399 17.04 28.7699 17.04 29.7499 17.88L31.3299 19.24C31.4899 19.38 31.8899 19.52 32.0999 19.52H33.7999C35.2799 19.52 36.4799 20.72 36.4799 22.2V23.9C36.4799 24.11 36.6299 24.51 36.7699 24.67L38.1299 26.25C38.9699 27.23 38.9699 28.76 38.1299 29.74L36.7699 31.32C36.6299 31.48 36.4799 31.88 36.4799 32.09V33.79C36.4799 35.27 35.2799 36.47 33.7999 36.47H32.0999C31.8899 36.47 31.4899 36.62 31.3299 36.75L29.7499 38.11C29.2599 38.54 28.6299 38.75 27.9999 38.75ZM22.1799 21.02C21.5299 21.02 20.9999 21.55 20.9999 22.2V23.91C20.9999 24.48 20.7299 25.21 20.3599 25.64L19.0099 27.23C18.6599 27.64 18.6599 28.35 19.0099 28.76L20.3599 30.35C20.7299 30.79 20.9999 31.51 20.9999 32.08V33.79C20.9999 34.44 21.5299 34.97 22.1799 34.97H23.9099C24.4899 34.97 25.2199 35.24 25.6599 35.62L27.2399 36.98C27.6499 37.33 28.3699 37.33 28.7799 36.98L30.3599 35.62C30.7999 35.25 31.5299 34.97 32.1099 34.97H33.8099C34.4599 34.97 34.9899 34.44 34.9899 33.79V32.09C34.9899 31.51 35.2599 30.78 35.6399 30.34L36.9999 28.76C37.3499 28.35 37.3499 27.63 36.9999 27.22L35.6399 25.64C35.2599 25.2 34.9899 24.47 34.9899 23.89V22.2C34.9899 21.55 34.4599 21.02 33.8099 21.02H32.1099C31.5299 21.02 30.7999 20.75 30.3599 20.37L28.7799 19.01C28.3699 18.66 27.6499 18.66 27.2399 19.01L25.6599 20.38C25.2199 20.75 24.4799 21.02 23.9099 21.02H22.1799Z" fill="#797979"/>
</svg>
